<svg xmlns="http://www.w3.org/2000/svg" width="440" height="240"><filter id="a" width="147.8%" height="143.9%" x="-25.3%" y="-21.9%"><feOffset in="SourceAlpha" result="shadowOffsetOuter1"/><feGaussianBlur in="shadowOffsetOuter1" result="shadowBlurOuter1" stdDeviation="5"/><feColorMatrix in="shadowBlurOuter1" result="shadowMatrixOuter1" values="0 0 0 0 0 0 0 0 0 0 0 0 0 0 0 0 0 0 0.5 0"/><feMerge><feMergeNode in="shadowMatrixOuter1"/><feMergeNode in="SourceGraphic"/></feMerge></filter><filter id="b" width="147%" height="144.6%" x="-24.6%" y="-22.6%"><feOffset in="SourceAlpha" result="shadowOffsetOuter1"/><feGaussianBlur in="shadowOffsetOuter1" result="shadowBlurOuter1" stdDeviation="5"/><feColorMatrix in="shadowBlurOuter1" result="shadowMatrixOuter1" values="0 0 0 0 0 0 0 0 0 0 0 0 0 0 0 0 0 0 0.5 0"/><feMerge><feMergeNode in="shadowMatrixOuter1"/><feMergeNode in="SourceGraphic"/></feMerge></filter><filter id="c" width="148.5%" height="149.7%" x="-24.2%" y="-24.8%"><feOffset in="SourceAlpha" result="shadowOffsetOuter1"/><feGaussianBlur in="shadowOffsetOuter1" result="shadowBlurOuter1" stdDeviation="5"/><feColorMatrix in="shadowBlurOuter1" result="shadowMatrixOuter1" values="0 0 0 0 0 0 0 0 0 0 0 0 0 0 0 0 0 0 0.5 0"/><feMerge><feMergeNode in="shadowMatrixOuter1"/><feMergeNode in="SourceGraphic"/></feMerge></filter><g fill="#3e77b4" fill-rule="evenodd" stroke-linecap="round"><g filter="url(#a)" transform="translate(219 28)"><g stroke="#fff" stroke-width="38"><path d="M81 172V12M81 92l100-80M81 92l100 80"/></g><g stroke="#0a711e" stroke-width="30"><path d="M81 172V12M81 92l100-80M81 92l100 80"/></g></g><g filter="url(#b)" transform="translate(118 26)"><g stroke="#fff" stroke-width="38"><path d="M82 174V14M82 174l100-80M82 14l100 80"/></g><g stroke="#904a22" stroke-width="30"><path d="M82 174V14M82 174l100-80M82 14l100 80"/></g></g><g filter="url(#c)" transform="translate(37 40)"><g stroke="#fff" stroke-width="39"><path d="m83 0 80 80M3 80l80 80M3 80 83 0M83 160l80-80"/></g><g stroke="#3e77b4" stroke-width="30"><path d="m83 0 80 80M3 80l80 80M3 80 83 0M83 160l80-80"/></g></g></g></svg>